<svg width="220" height="74" viewBox="0 0 220 74" fill="none" xmlns="http://www.w3.org/2000/svg">
<path d="M207.435 20.5996V35.4878L185.883 35.4917V20.5996H179.34V42.72H180.103C187.883 42.7162 195.662 42.7085 203.441 42.6969C204.953 42.6949 206.465 42.6904 207.977 42.6859C210.027 42.6798 212.077 42.6737 214.128 42.6739V45.2385H220.001V35.4272H214.19C214.106 35.2976 214.106 35.0651 214.106 34.6479V21.48C214.106 21.2676 214.093 21.0533 214.08 20.8504C214.075 20.7644 214.07 20.6805 214.066 20.5996H207.435Z" fill="#00578A"/>
<path d="M131.684 29.3056V42.6516H125.08V20.6069C126.815 20.6069 128.526 20.6069 130.235 20.6165C130.473 20.6531 130.703 20.7331 130.912 20.8528C136.806 23.3592 142.697 25.8726 148.583 28.3931C148.818 28.5044 149.076 28.56 149.336 28.5557C149.596 28.5514 149.852 28.4872 150.083 28.3682C155.785 25.8438 161.495 23.3368 167.212 20.847C167.564 20.6978 167.941 20.6176 168.323 20.6107C169.867 20.5857 171.41 20.6107 173.012 20.6107V42.6804H166.44V29.3787C166.082 29.5227 165.839 29.6111 165.606 29.7149C160.455 31.9946 155.308 34.2794 150.164 36.5693C149.935 36.6897 149.681 36.7552 149.423 36.7605C149.164 36.7658 148.908 36.711 148.674 36.6001C143.312 34.2666 137.942 31.9497 132.564 29.6495C132.304 29.5285 132.035 29.4401 131.684 29.3056Z" fill="#00578A"/>
<path d="M84.1484 20.5996H119.003V21.6744C119.003 23.3924 118.967 25.1104 119.019 26.8285C119.041 27.552 118.787 27.7047 118.108 27.7028C109.339 27.6824 100.569 27.6779 91.7994 27.6894H90.7476V42.4111H84.1484V20.5996Z" fill="#00578A"/>
<path d="M84.0156 53.5857V49.1426H87.247V49.7878H84.8382V53.5857H84.0156Z" fill="#151515"/>
<path d="M90.0751 53.5849C89.6772 53.5946 89.284 53.499 88.9361 53.308C88.6142 53.1219 88.3541 52.8473 88.1878 52.5176C88.0019 52.139 87.9104 51.7221 87.9209 51.3015C87.9093 50.8778 88.0009 50.4574 88.1878 50.0758C88.3541 49.7462 88.6142 49.4715 88.9361 49.2854C89.2836 49.0936 89.6771 48.9979 90.0751 49.0086C90.4743 48.9987 90.8688 49.0942 91.218 49.2854C91.5407 49.47 91.8005 49.7451 91.9644 50.0758C92.1483 50.4549 92.2384 50.8718 92.2274 51.292C92.2388 51.7153 92.1487 52.1352 91.9644 52.5176C91.8005 52.8484 91.5407 53.1235 91.218 53.308C90.8685 53.4983 90.4741 53.5938 90.0751 53.5849ZM90.0751 52.951C90.2579 52.9575 90.4399 52.9232 90.6073 52.8504C90.7748 52.7777 90.9234 52.6685 91.042 52.531C91.2857 52.2484 91.4075 51.8354 91.4075 51.292C91.4075 50.7485 91.2857 50.3387 91.042 50.0625C90.9221 49.927 90.7731 49.8197 90.6058 49.7483C90.4385 49.677 90.2572 49.6434 90.0751 49.6501C89.893 49.6431 89.7116 49.6766 89.5443 49.748C89.377 49.8193 89.228 49.9268 89.1082 50.0625C88.8684 50.3374 88.7485 50.7472 88.7485 51.292C88.7485 51.8367 88.8684 52.2497 89.1082 52.531C89.2267 52.6687 89.3752 52.778 89.5427 52.8508C89.7102 52.9236 89.8923 52.9578 90.0751 52.951Z" fill="#151515"/>
<path d="M93.5124 55.4705V50.145C93.5124 49.9732 93.5124 49.7977 93.4927 49.6201C93.473 49.4426 93.4631 49.2651 93.4395 49.0876H94.2281L94.3267 50.118H94.2281C94.311 49.7859 94.5178 49.4961 94.8078 49.3056C95.1217 49.1021 95.4921 48.9984 95.8685 49.0085C96.2417 49.0004 96.6095 49.096 96.9293 49.2844C97.2386 49.4751 97.4835 49.751 97.6332 50.0774C97.8077 50.4675 97.8925 50.8905 97.8816 51.3162C97.8923 51.7432 97.8075 52.1673 97.6332 52.5588C97.4848 52.8876 97.2398 53.1656 96.9293 53.3576C96.6095 53.546 96.2417 53.6417 95.8685 53.6336C95.4966 53.6422 95.1311 53.5384 94.8216 53.3364C94.5341 53.1443 94.3248 52.8596 94.2301 52.5318H94.3287V55.4705H93.5124ZM95.6812 52.9929C95.8695 53.0005 96.057 52.9662 96.2298 52.8927C96.4026 52.8191 96.5561 52.7083 96.6789 52.5685C96.926 52.2829 97.0496 51.8655 97.0496 51.3162C97.0496 50.7669 96.926 50.3527 96.6789 50.0736C96.5548 49.9358 96.4009 49.8268 96.2282 49.7547C96.0556 49.6826 95.8687 49.6491 95.6812 49.6568C95.4955 49.6498 95.3106 49.6836 95.14 49.7557C94.9694 49.8278 94.8175 49.9365 94.6954 50.0736C94.4509 50.3514 94.3287 50.7656 94.3287 51.3162C94.3287 51.8668 94.4509 52.2842 94.6954 52.5685C94.817 52.7087 94.9698 52.8198 95.142 52.8934C95.3142 52.967 95.5014 53.001 95.6891 52.9929H95.6812Z" fill="#151515"/>
<path d="M100.98 53.5849C100.582 53.5944 100.188 53.4988 99.8405 53.3081C99.5197 53.1211 99.2605 52.8466 99.094 52.5176C98.9081 52.1391 98.8166 51.7221 98.8271 51.3015C98.8156 50.8778 98.9071 50.4574 99.094 50.0758C99.2605 49.7468 99.5197 49.4724 99.8405 49.2854C100.188 49.0938 100.582 48.9982 100.98 49.0086C101.379 48.9984 101.773 49.094 102.122 49.2854C102.446 49.4699 102.706 49.745 102.871 50.0758C103.054 50.4551 103.144 50.8718 103.134 51.292C103.144 51.7152 103.054 52.1349 102.871 52.5176C102.706 52.8485 102.446 53.1236 102.122 53.3081C101.773 53.4986 101.379 53.5941 100.98 53.5849ZM100.98 52.951C101.162 52.9576 101.344 52.9232 101.512 52.8504C101.679 52.7777 101.828 52.6685 101.946 52.531C102.189 52.2485 102.31 51.8354 102.31 51.292C102.31 50.7485 102.189 50.3386 101.946 50.0625C101.826 49.9271 101.677 49.8199 101.51 49.7485C101.343 49.6772 101.162 49.6435 100.98 49.65C100.797 49.643 100.616 49.6764 100.449 49.7477C100.281 49.8191 100.132 49.9267 100.013 50.0625C99.7715 50.3374 99.651 50.7472 99.651 51.292C99.651 51.8367 99.7715 52.2497 100.013 52.531C100.131 52.6688 100.28 52.7783 100.447 52.8511C100.615 52.9238 100.797 52.958 100.98 52.951Z" fill="#151515"/>
<path d="M104.076 54.6628V52.9112H104.564C104.775 52.5915 104.924 52.2369 105.005 51.8648C105.103 51.3939 105.148 50.9141 105.142 50.4335V49.1426H108.348V52.9112H109.058V54.6628H108.365V53.5254H104.769V54.6628H104.076ZM105.329 52.9188H107.593V49.7568H105.856V50.5776C105.857 51.0094 105.812 51.4402 105.723 51.8629C105.646 52.2338 105.51 52.5902 105.319 52.9188H105.329Z" fill="#151515"/>
<path d="M112.095 53.5848C111.683 53.5949 111.277 53.4994 110.916 53.308C110.583 53.1214 110.314 52.8429 110.143 52.508C109.95 52.1212 109.856 51.6948 109.868 51.2651C109.856 50.8434 109.951 50.4254 110.147 50.0489C110.326 49.7221 110.599 49.4532 110.933 49.2757C111.292 49.0914 111.693 48.9994 112.099 49.0084C112.391 49.0077 112.682 49.0568 112.957 49.1535C113.214 49.2377 113.447 49.3804 113.635 49.5697L113.356 50.1329C113.191 49.9741 112.993 49.85 112.776 49.7683C112.578 49.692 112.367 49.6518 112.154 49.6499C111.958 49.64 111.762 49.6722 111.581 49.7442C111.4 49.8161 111.237 49.926 111.104 50.0661C110.851 50.3448 110.725 50.7477 110.725 51.2746C110.695 51.7155 110.829 52.1521 111.104 52.5042C111.235 52.6478 111.397 52.7611 111.578 52.8355C111.76 52.9099 111.957 52.9434 112.154 52.9337C112.364 52.9314 112.572 52.8926 112.769 52.8192C112.988 52.7397 113.189 52.6175 113.358 52.4603L113.637 53.014C113.445 53.2079 113.208 53.3539 112.945 53.4397C112.672 53.535 112.385 53.5841 112.095 53.5848Z" fill="#151515"/>
<path d="M114.713 53.5857V49.1426H115.513V50.9801H116.33L117.777 49.1426H118.663L116.982 51.3008L116.769 51.055C116.925 51.0676 117.077 51.1106 117.216 51.1817C117.352 51.26 117.474 51.3599 117.577 51.4774C117.718 51.6406 117.845 51.8153 117.956 51.9997L118.887 53.5799H118.01L117.196 52.2109C117.124 52.0758 117.034 51.9511 116.928 51.8403C116.845 51.7537 116.743 51.6879 116.629 51.6483C116.494 51.6104 116.353 51.5929 116.213 51.5965H115.513V53.5742L114.713 53.5857Z" fill="#151515"/>
<path d="M121.715 53.5849C121.317 53.5946 120.923 53.499 120.575 53.308C120.253 53.1219 119.993 52.8473 119.827 52.5176C119.641 52.1389 119.55 51.7219 119.562 51.3015C119.549 50.8779 119.64 50.4576 119.827 50.0758C119.993 49.7462 120.253 49.4715 120.575 49.2854C120.923 49.0936 121.317 48.9979 121.715 49.0086C122.114 48.9985 122.509 49.094 122.858 49.2854C123.181 49.47 123.441 49.7451 123.605 50.0758C123.789 50.4549 123.879 50.8718 123.868 51.292C123.879 51.7153 123.789 52.1352 123.605 52.5176C123.441 52.8484 123.181 53.1235 122.858 53.308C122.509 53.4986 122.114 53.5941 121.715 53.5849ZM121.715 52.951C121.898 52.9575 122.08 52.9232 122.247 52.8504C122.415 52.7777 122.563 52.6685 122.682 52.531C122.926 52.2484 123.048 51.8354 123.048 51.292C123.048 50.7485 122.926 50.3387 122.682 50.0625C122.562 49.927 122.413 49.8197 122.246 49.7483C122.078 49.677 121.897 49.6434 121.715 49.6501C121.533 49.6431 121.351 49.6766 121.184 49.748C121.016 49.8193 120.867 49.9268 120.748 50.0625C120.508 50.3374 120.388 50.7472 120.388 51.292C120.388 51.8367 120.508 52.2497 120.748 52.531C120.866 52.6687 121.015 52.778 121.182 52.8508C121.35 52.9236 121.532 52.9578 121.715 52.951Z" fill="#151515"/>
<path d="M125.08 53.5763V49.1228H125.836V52.8258H125.588L128.429 49.1324H129.119V53.586H128.364V49.8849H128.619L125.77 53.586L125.08 53.5763ZM127.1 48.7167C126.854 48.7195 126.609 48.6744 126.382 48.5839C126.167 48.4985 125.976 48.3669 125.822 48.199C125.658 48.0162 125.538 47.7998 125.472 47.5658L125.944 47.3964C126.026 47.6433 126.181 47.861 126.39 48.0219C126.599 48.1578 126.848 48.2252 127.1 48.2144C127.353 48.2221 127.604 48.155 127.818 48.0219C128.036 47.8585 128.206 47.6412 128.31 47.3926L128.755 47.5523C128.64 47.9063 128.408 48.2138 128.097 48.428C127.801 48.6186 127.454 48.7192 127.1 48.7167Z" fill="#151515"/>
<path d="M133.023 53.5857V49.1426H133.705L135.378 52.0496L137.058 49.1426H137.736V53.5857H137.013V50.045H137.209L135.58 52.8714H135.175L133.548 50.0354H133.745V53.5857H133.023Z" fill="#151515"/>
<path d="M141.243 53.5855C140.535 53.5855 139.975 53.3831 139.564 52.9783C139.154 52.5755 138.95 52.0237 138.95 51.3096C138.939 50.8885 139.031 50.471 139.22 50.0934C139.388 49.7625 139.648 49.4858 139.969 49.2953C140.306 49.0995 140.692 49.0004 141.083 49.0089C141.446 48.9968 141.806 49.0868 142.119 49.2685C142.405 49.4416 142.631 49.6975 142.766 50.0017C142.922 50.356 142.997 50.7399 142.988 51.1263V51.3898H139.578V50.9144H142.439L142.289 51.0289C142.312 50.6501 142.204 50.2748 141.982 49.9655C141.873 49.8366 141.735 49.7349 141.579 49.6686C141.423 49.6023 141.253 49.5732 141.083 49.5836C140.893 49.5735 140.703 49.6084 140.529 49.6854C140.355 49.7624 140.202 49.8793 140.082 50.0265C139.832 50.3781 139.708 50.8033 139.732 51.2332V51.3134C139.732 51.8518 139.867 52.2586 140.136 52.5335C140.284 52.6755 140.46 52.7855 140.653 52.8565C140.846 52.9275 141.051 52.9579 141.257 52.9459C141.509 52.9485 141.76 52.9104 142 52.8332C142.244 52.7487 142.469 52.6191 142.664 52.4514L142.93 53.0051C142.713 53.1956 142.457 53.3387 142.181 53.4251C141.879 53.5302 141.563 53.5844 141.243 53.5855Z" fill="#151515"/>
<path d="M143.795 54.6628V52.9112H144.295C144.511 52.5915 144.664 52.2369 144.747 51.8648C144.847 51.3939 144.894 50.9141 144.887 50.4335V49.1426H148.183V52.9112H148.911V54.6628H148.183V53.5254H144.515V54.6628H143.795ZM145.079 52.9188H147.392V49.7568H145.611V50.5776C145.612 51.0094 145.566 51.4402 145.475 51.8629C145.402 52.2328 145.269 52.5892 145.079 52.9188Z" fill="#151515"/>
<path d="M149.854 53.5761V49.1426H150.609V52.8289H150.364L153.202 49.1522H153.893V53.5857H153.137V49.9013H153.392L150.546 53.5857L149.854 53.5761Z" fill="#151515"/>
<path d="M159.263 54.7974V53.6331H155.375V49.1426H156.18V53.0005H158.433V49.1426H159.237V53.0005H159.953V54.7936L159.263 54.7974Z" fill="#151515"/>
<path d="M161.029 53.5761V49.1426H161.785V52.8289H161.539L164.376 49.1522H165.068V53.5857H164.313V49.9013H164.568L161.721 53.5857L161.029 53.5761Z" fill="#151515"/>
<path d="M166.549 53.5857V49.1426H167.368V50.9801H169.774V49.1426H170.588V53.5857H169.774V51.6156H167.368V53.5857H166.549Z" fill="#151515"/>
<path d="M174.034 53.5848C173.622 53.5949 173.214 53.4994 172.853 53.308C172.519 53.1219 172.249 52.8433 172.079 52.508C171.885 52.1214 171.79 51.695 171.802 51.2651C171.79 50.8433 171.886 50.4252 172.083 50.0489C172.26 49.724 172.53 49.4555 172.861 49.2757C173.22 49.0914 173.623 48.9994 174.03 49.0084C174.323 49.0077 174.614 49.0568 174.89 49.1535C175.147 49.2377 175.38 49.3804 175.569 49.5697L175.287 50.1329C175.122 49.9745 174.925 49.8505 174.709 49.7683C174.509 49.6918 174.297 49.6516 174.083 49.6499C173.887 49.6403 173.692 49.6727 173.51 49.7446C173.329 49.8165 173.166 49.9263 173.034 50.0661C172.779 50.3448 172.653 50.7477 172.654 51.2746C172.624 51.7155 172.759 52.1521 173.034 52.5042C173.164 52.6477 173.326 52.7609 173.508 52.8352C173.689 52.9096 173.886 52.9433 174.083 52.9337C174.294 52.9319 174.502 52.8931 174.699 52.8192C174.919 52.7401 175.12 52.6179 175.289 52.4603L175.571 53.014C175.378 53.2079 175.141 53.3539 174.878 53.4397C174.607 53.5338 174.321 53.5829 174.034 53.5848Z" fill="#151515"/>
<path d="M176.646 53.5857V49.1426H177.461V50.9801H178.275L179.722 49.1426H180.607L178.918 51.3008L178.702 51.055C178.858 51.0671 179.01 51.1102 179.149 51.1817C179.286 51.2594 179.409 51.3594 179.513 51.4774C179.652 51.6416 179.779 51.8162 179.891 51.9997L180.82 53.5799H179.946L179.132 52.2109C179.06 52.0758 178.97 51.9511 178.864 51.8403C178.781 51.7537 178.678 51.6879 178.564 51.6483C178.429 51.6105 178.289 51.593 178.149 51.5965H177.461V53.5742L176.646 53.5857Z" fill="#151515"/>
<path d="M181.629 53.5761V49.1426H182.384V52.8289H182.139L184.976 49.1522H185.668V53.5857H184.923V49.9013H185.178L182.331 53.5857L181.629 53.5761Z" fill="#151515"/>
<path d="M187.148 53.5763V49.1283H187.903V52.8267H187.662L190.496 49.138H191.188V53.586H190.427V49.8895H190.682L187.838 53.586L187.148 53.5763ZM189.165 48.7227C188.921 48.7273 188.679 48.6849 188.452 48.5978C188.238 48.5121 188.047 48.3807 187.893 48.2134C187.731 48.0299 187.611 47.814 187.543 47.581L188.016 47.4118C188.098 47.6517 188.249 47.8633 188.452 48.0211C188.66 48.1574 188.908 48.2248 189.159 48.2134C189.413 48.2213 189.664 48.1543 189.878 48.0211C190.097 47.8583 190.266 47.6412 190.368 47.3926L190.814 47.5521C190.698 47.9059 190.467 48.213 190.155 48.4268C189.862 48.6188 189.518 48.7218 189.165 48.7227Z" fill="#151515"/>
<path d="M198.981 54.7974V53.6331H195.092V49.1426H195.897V53.0005H198.149V49.1426H198.954V53.0005H199.67V54.7936L198.981 54.7974Z" fill="#151515"/>
<path d="M202.774 53.5855C202.065 53.5855 201.506 53.3834 201.096 52.9791C200.684 52.5767 200.48 52.0256 200.48 51.3124C200.467 50.8903 200.559 50.4716 200.745 50.092C200.915 49.762 201.174 49.4857 201.495 49.2949C201.833 49.0991 202.22 49.0001 202.612 49.0089C202.975 48.9968 203.334 49.0867 203.648 49.2682C203.934 49.4422 204.159 49.6975 204.295 50.0005C204.45 50.3546 204.526 50.7378 204.517 51.1236V51.3868H201.109V50.912H203.97L203.82 51.0264C203.843 50.6481 203.735 50.2732 203.513 49.9643C203.404 49.8356 203.266 49.7341 203.11 49.6678C202.955 49.6016 202.785 49.5725 202.616 49.5829C202.425 49.5727 202.235 49.6074 202.061 49.6844C201.887 49.7613 201.734 49.8781 201.614 50.0253C201.361 50.3752 201.236 50.8005 201.26 51.2304V51.3105C201.26 51.8483 201.393 52.264 201.662 52.5291C201.81 52.6706 201.986 52.7803 202.179 52.8512C202.372 52.922 202.578 52.9526 202.783 52.941C203.036 52.9437 203.287 52.9057 203.527 52.8285C203.771 52.744 203.996 52.6146 204.191 52.4471L204.457 53.0001C204.24 53.1899 203.986 53.3328 203.71 53.4196C203.409 53.526 203.093 53.5821 202.774 53.5855Z" fill="#151515"/>
<path d="M205.729 53.5857V49.1426H206.538V50.9801H208.951V49.1426H209.768V53.5857H208.951V51.6156H206.538V53.5857H205.729Z" fill="#151515"/>
<path d="M212.195 53.5857V49.7878H210.576V49.1426H214.615V49.7878H212.999V53.5857H212.195Z" fill="#151515"/>
<path d="M215.497 55.4705V50.145C215.497 49.9732 215.497 49.7977 215.479 49.6201C215.461 49.4426 215.447 49.2651 215.424 49.0876H216.22L216.319 50.118H216.22C216.303 49.7859 216.509 49.4961 216.798 49.3056C217.112 49.1021 217.482 48.9983 217.858 49.0085C218.23 49.0004 218.597 49.096 218.916 49.2844C219.224 49.4752 219.468 49.7511 219.616 50.0774C219.792 50.4671 219.877 50.8902 219.866 51.3162C219.877 51.7434 219.792 52.1678 219.616 52.5588C219.469 52.8874 219.225 53.1654 218.916 53.3576C218.597 53.546 218.23 53.6417 217.858 53.6336C217.487 53.6424 217.121 53.5387 216.812 53.3364C216.525 53.1443 216.317 52.8596 216.222 52.5318H216.321V55.4705H215.497ZM217.66 52.9929C217.847 53.0005 218.034 52.9662 218.207 52.8927C218.379 52.8191 218.532 52.7083 218.655 52.5685C218.902 52.2829 219.024 51.8661 219.024 51.3162C219.024 50.7663 218.902 50.3514 218.655 50.0736C218.531 49.9358 218.377 49.8268 218.205 49.7547C218.033 49.6826 217.847 49.6492 217.66 49.6568C217.474 49.6498 217.29 49.6836 217.12 49.7557C216.95 49.8278 216.798 49.9365 216.676 50.0736C216.427 50.3476 216.303 50.7618 216.303 51.3162C216.303 51.8706 216.425 52.288 216.669 52.5685C216.791 52.7097 216.944 52.8215 217.118 52.8952C217.291 52.9688 217.479 53.0022 217.667 52.9929H217.66Z" fill="#151515"/>
<path d="M11.1789 44.9406C11.0967 42.8936 12.6737 41.7959 13.3903 44.805C14.1069 47.814 15.0803 54.5282 15.0803 54.5282C15.0803 54.5282 11.297 53.8655 11.3381 53.5968C11.3792 53.3281 11.1789 44.9406 11.1789 44.9406Z" fill="#00578A"/>
<path d="M7.5428 40.0185C7.44217 37.4912 9.39804 36.1473 10.2857 39.8502C11.1733 43.5531 12.3861 51.8362 12.3861 51.8362C12.3861 51.8362 7.68987 51.0201 7.74148 50.6886C7.79308 50.3571 7.5428 40.0185 7.5428 40.0185Z" fill="#007D99"/>
<path d="M3.88815 36.3918C3.77708 33.5808 5.90761 32.0807 6.8719 36.2053C7.83619 40.3298 9.15641 49.5475 9.15641 49.5475C9.15641 49.5475 3.0425 43.1588 3.09803 42.7959C3.15357 42.433 3.88815 36.3918 3.88815 36.3918Z" fill="#01A6A0"/>
<path d="M28.5765 73.108C27.7136 59.5516 13.6377 59.4658 7.59469 54.6578C1.55169 49.8497 0.224122 37.577 0.596863 34.8233C0.969603 32.0697 2.43248 30.7095 3.64772 34.5554C4.86295 38.4013 5.99904 45.3275 10.5843 48.5278C15.1695 51.728 23.7607 52.1491 18.8714 48.6145C12.4888 44.0004 13.5941 39.5407 15.1101 38.6081C16.2695 37.8949 18.9837 42.8878 22.7647 44.9268C26.5457 46.9659 32.2024 48.57 34.8193 54.922C37.7941 62.1429 28.5765 73.108 28.5765 73.108Z" fill="#00C6BF"/>
<path d="M57.2616 6.02584C53.0957 3.18033 46.1738 1.55216 39.3819 5.92378C36.6284 8.54727 34.3134 12.1022 32.7531 16.7188C32.7531 16.7188 24.768 7.92704 11.9924 12.7223C-0.783225 17.5176 0.00966736 31.37 0.00966736 31.37C0.00966736 31.37 3.68607 20.0901 15.9798 19.3755C28.2736 18.661 34.6748 30.5137 34.6748 30.5137C34.6748 30.5137 36.2357 18.5052 47.3848 15.6469C57.667 13.0209 63.8547 21.1032 61.2542 31.1633C65.6852 20.9246 63.8827 10.5455 57.2616 6.02584Z" fill="#00578A"/>
<path d="M52.2402 48.9835C52.2402 48.9835 41.7148 36.4876 23.1582 43.1603C23.1582 43.1603 32.6414 42.9591 36.9605 53.7892C39.6482 60.528 33.1253 70.4159 33.1253 70.4159C33.1253 70.4159 44.5943 60.9892 52.2402 48.9835Z" fill="#00578A"/>
<path d="M71.3442 8.42509C65.0524 -0.83138 49.3254 -3.57641 39.3519 5.89651C46.1489 1.53438 53.076 3.15902 57.245 5.99835C63.8787 10.5082 65.6647 20.8545 61.2508 31.0863C60.9792 32.1239 60.6312 33.1402 60.2098 34.1268C55.9591 44.1294 50.8869 50.4956 50.8869 50.4956C43.4648 61.7001 32.8516 70.5508 32.8516 70.5508C73.9601 53.3264 82.1291 24.305 71.3442 8.42509Z" fill="#00C6BF"/>
<path opacity="0.29" d="M56.6412 16.5767C62.147 19.9561 62.2475 26.7855 61.134 31.1007C65.5422 20.8715 63.7449 10.5278 57.1428 6.01906C52.9889 3.18045 46.0868 1.55622 39.3145 5.91725C44.7852 2.7324 57.5208 0.145825 56.6412 16.5767Z" fill="#00578A" style="mix-blend-mode:multiply"/>
<path opacity="0.29" d="M48.4875 45.6426C46.2541 53.6628 37.1416 66.439 33.1211 70.4161C33.1211 70.4161 42.8591 62.485 52.2398 48.7616C51.0784 47.6922 49.8276 46.5337 48.4875 45.6426Z" fill="#00578A" style="mix-blend-mode:multiply"/>
</svg>
