<svg width="26" height="26" viewBox="0 0 26 26" fill="none" xmlns="http://www.w3.org/2000/svg">
<rect width="26" height="26" rx="5.2" fill="#25D366"/>
<path d="M16.2495 14.4295C16.0545 14.3645 15.2095 13.9095 15.0145 13.8445C14.8195 13.7795 14.7545 13.7795 14.6245 13.9095C14.4456 14.1606 14.2502 14.3994 14.0395 14.6245C13.9095 14.7545 13.8445 14.7545 13.6495 14.6895C13.1061 14.5066 12.6153 14.1943 12.2195 13.7795C11.8165 13.4359 11.4852 13.0162 11.2445 12.5445C11.1145 12.3495 11.2445 12.2845 11.3095 12.1545C11.4116 12.0595 11.4992 11.95 11.5695 11.8295C11.6345 11.6995 11.6995 11.6345 11.7645 11.5045C11.8295 11.3745 11.7645 11.3095 11.7645 11.1795C11.7645 11.0495 11.3745 10.2045 11.1795 9.87948C10.9845 9.55448 10.9195 9.55448 10.7895 9.55448H10.4645C10.2942 9.56208 10.1324 9.63139 10.0095 9.74948C9.79579 9.93384 9.62639 10.164 9.51386 10.4228C9.40133 10.6816 9.34857 10.9625 9.35948 11.2445C9.41905 11.909 9.66711 12.5426 10.0745 13.071C10.8129 14.2408 11.877 15.1693 13.136 15.7425C13.591 15.9375 13.916 16.0025 14.176 16.1325C14.5329 16.247 14.9131 16.2693 15.281 16.1975C15.777 16.065 16.2128 15.7669 16.516 15.3525C16.5981 15.0782 16.6419 14.7938 16.646 14.5075C16.5132 14.5086 16.3812 14.4866 16.256 14.4425L16.2495 14.4295ZM12.9995 18.8495C11.9197 18.8625 10.8583 18.5695 9.93798 18.0045L9.74298 17.8745L7.46148 18.4595L8.05298 16.2495L7.92298 16.0545C7.32881 15.096 7.01367 13.9907 7.01298 12.863C7.0117 11.6771 7.36225 10.5175 8.02028 9.53101C8.6783 8.54447 9.61422 7.77532 10.7096 7.32092C11.8049 6.86652 13.0104 6.74729 14.1736 6.97833C15.3367 7.20936 16.4051 7.78027 17.2437 8.6188C18.0822 9.45732 18.6531 10.5258 18.8841 11.6889C19.1152 12.852 18.9959 14.0576 18.5415 15.1529C18.0871 16.2483 17.318 17.1842 16.3315 17.8422C15.3449 18.5002 14.1853 18.8508 12.9995 18.8495ZM18.076 7.85148C16.7111 6.5359 14.895 5.79178 12.9995 5.77148C11.1032 5.77148 9.28456 6.52479 7.94367 7.86567C6.60279 9.20656 5.84948 11.0252 5.84948 12.9215C5.84917 14.1809 6.18581 15.4175 6.82448 16.503L5.77148 20.2275L9.61298 19.2525C10.6708 19.8285 11.8602 20.1197 13.0645 20.0975C14.0034 20.0975 14.9332 19.9125 15.8007 19.5532C16.6681 19.1939 17.4564 18.6672 18.1203 18.0033C18.7842 17.3394 19.3109 16.5511 19.6702 15.6837C20.0295 14.8162 20.2145 13.8864 20.2145 12.9475C20.1684 11.0434 19.3992 9.22829 18.063 7.87098" fill="#FBFBFD"/>
</svg>
