<svg width="26" height="26" viewBox="0 0 26 26" fill="none" xmlns="http://www.w3.org/2000/svg">
<rect width="26" height="26" rx="5.2" fill="#2787F5"/>
<path fill-rule="evenodd" clip-rule="evenodd" d="M6.85754 6.85657C5.85059 7.85757 5.85059 9.47823 5.85059 12.7136V13.2856C5.85059 16.521 5.85059 18.1417 6.85754 19.1426C7.85854 20.1496 9.47921 20.1496 12.7146 20.1496H13.2866C16.522 20.1496 18.1426 20.1496 19.1436 19.1426C20.1506 18.1417 20.1506 16.521 20.1506 13.2856V12.7136C20.1506 9.47823 20.1506 7.85757 19.1436 6.85657C18.1426 5.84961 16.522 5.84961 13.2866 5.84961H12.7146C9.47921 5.84961 7.85854 5.84961 6.85754 6.85657ZM8.26468 10.1994C8.34214 13.9174 10.2011 16.1517 13.4603 16.1517H13.6451V14.0246C14.2199 14.097 14.7607 14.3375 15.1995 14.7159C15.6383 15.0943 15.9557 15.5937 16.1118 16.1517H17.804C17.63 15.5093 17.3218 14.9111 16.8997 14.3965C16.4776 13.882 15.9511 13.4628 15.3551 13.1666C15.8891 12.8425 16.3504 12.4117 16.7103 11.9011C17.0701 11.3905 17.3207 10.8112 17.4465 10.1994H15.9092C15.5756 11.3791 14.5865 12.4516 13.6451 12.5529V10.1994H12.1078V14.3225C11.1545 14.0842 9.95089 12.9283 9.89727 10.1994H8.26468Z" fill="#FBFBFD"/>
</svg>
