<svg width="76" height="74" viewBox="0 0 76 74" fill="none" xmlns="http://www.w3.org/2000/svg">
<path d="M11.1779 44.9406C11.0957 42.8936 12.6727 41.7959 13.3893 44.805C14.1059 47.814 15.0793 54.5282 15.0793 54.5282C15.0793 54.5282 11.296 53.8655 11.3371 53.5968C11.3782 53.3281 11.1779 44.9406 11.1779 44.9406Z" fill="#00578A"/>
<path d="M7.54378 40.0185C7.44315 37.4912 9.39902 36.1473 10.2867 39.8502C11.1743 43.5531 12.387 51.8362 12.387 51.8362C12.387 51.8362 7.69085 51.0201 7.74245 50.6886C7.79406 50.3571 7.54378 40.0185 7.54378 40.0185Z" fill="#007D99"/>
<path d="M3.88717 36.3918C3.7761 33.5808 5.90663 32.0807 6.87092 36.2053C7.83521 40.3298 9.15543 49.5475 9.15543 49.5475C9.15543 49.5475 3.04152 43.1588 3.09706 42.7959C3.15259 42.433 3.88717 36.3918 3.88717 36.3918Z" fill="#01A6A0"/>
<path d="M28.5765 73.1099C27.7136 59.5535 13.6377 59.4677 7.59469 54.6597C1.55169 49.8517 0.224122 37.5789 0.596863 34.8253C0.969603 32.0716 2.43248 30.7115 3.64772 34.5574C4.86295 38.4033 5.99904 45.3295 10.5843 48.5297C15.1695 51.73 23.7607 52.1511 18.8714 48.6165C12.4888 44.0024 13.5941 39.5426 15.1101 38.61C16.2695 37.8968 18.9837 42.8897 22.7647 44.9288C26.5457 46.9679 32.2024 48.5719 34.8193 54.9239C37.7941 62.1448 28.5765 73.1099 28.5765 73.1099Z" fill="#00C6BF"/>
<path d="M57.2616 6.02584C53.0957 3.18033 46.1738 1.55216 39.3819 5.92378C36.6284 8.54727 34.3134 12.1022 32.7531 16.7188C32.7531 16.7188 24.768 7.92704 11.9924 12.7223C-0.783225 17.5176 0.00966736 31.37 0.00966736 31.37C0.00966736 31.37 3.68607 20.0901 15.9798 19.3755C28.2736 18.661 34.6748 30.5137 34.6748 30.5137C34.6748 30.5137 36.2357 18.5052 47.3848 15.6469C57.667 13.0209 63.8547 21.1032 61.2542 31.1633C65.6852 20.9246 63.8827 10.5455 57.2616 6.02584Z" fill="#00578A"/>
<path d="M52.2402 48.9835C52.2402 48.9835 41.7148 36.4876 23.1582 43.1603C23.1582 43.1603 32.6414 42.9591 36.9605 53.7892C39.6482 60.528 33.1253 70.4159 33.1253 70.4159C33.1253 70.4159 44.5943 60.9892 52.2402 48.9835Z" fill="#00578A"/>
<path d="M71.3442 8.42509C65.0524 -0.83138 49.3254 -3.57641 39.3519 5.89651C46.1489 1.53438 53.076 3.15902 57.245 5.99835C63.8787 10.5082 65.6647 20.8545 61.2508 31.0863C60.9792 32.1239 60.6312 33.1402 60.2098 34.1268C55.9591 44.1294 50.8869 50.4956 50.8869 50.4956C43.4648 61.7001 32.8516 70.5508 32.8516 70.5508C73.9601 53.3264 82.1291 24.305 71.3442 8.42509Z" fill="#00C6BF"/>
<path opacity="0.29" d="M56.6412 16.5767C62.147 19.9561 62.2475 26.7855 61.134 31.1007C65.5422 20.8715 63.7449 10.5278 57.1428 6.01906C52.9889 3.18045 46.0868 1.55622 39.3145 5.91725C44.7852 2.7324 57.5208 0.145825 56.6412 16.5767Z" fill="#00578A" style="mix-blend-mode:multiply"/>
<path opacity="0.29" d="M48.4875 45.6426C46.2541 53.6628 37.1416 66.439 33.1211 70.4161C33.1211 70.4161 42.8591 62.485 52.2398 48.7616C51.0784 47.6922 49.8276 46.5337 48.4875 45.6426Z" fill="#00578A" style="mix-blend-mode:multiply"/>
</svg>
